<svg xmlns="http://www.w3.org/2000/svg" xmlns:xlink="http://www.w3.org/1999/xlink" width="555.28" height="330.484" viewBox="0 0 555.28 330.484">
  <defs>
    <linearGradient id="linear-gradient" x1="0.437" y1="-0.053" x2="0.55" y2="0.939" gradientUnits="objectBoundingBox">
      <stop offset="0" stop-color="#d79d0d"/>
      <stop offset="1" stop-color="#ffc628"/>
    </linearGradient>
  </defs>
  <g id="Group_2705" data-name="Group 2705" transform="translate(-82.36 -450.801)">
    <g id="Group_2704" data-name="Group 2704">
      <g id="Group_2706" data-name="Group 2706">
        <g id="Group_2707" data-name="Group 2707">
          <g id="Group_2" data-name="Group 2" transform="translate(82.86 451.301)">
            <g id="Group_1" data-name="Group 1" transform="translate(0)">
              <rect id="Rectangle_1" data-name="Rectangle 1" width="554.28" height="329.484" rx="50" stroke="#565050" stroke-linecap="round" stroke-linejoin="round" stroke-width="1" fill="url(#linear-gradient)"/>
            </g>
          </g>
          <g id="Group_3" data-name="Group 3" transform="translate(178.018 450.881)" opacity="0.25">
            <path id="Path_1" data-name="Path 1" d="M119.955,486.978H56.274l133.571-329.66h63.681Z" transform="translate(-56.274 -157.318)" fill="#fff"/>
          </g>
          <g id="Group_4" data-name="Group 4" transform="translate(288.537 450.881)" opacity="0.25">
            <path id="Path_2" data-name="Path 2" d="M125.612,486.978H93.772l133.575-329.66h31.841Z" transform="translate(-93.772 -157.318)" fill="#fff"/>
          </g>
          <g id="Group_5" data-name="Group 5" transform="translate(155.86 648.575)">
            <path id="Path_7" data-name="Path 7" d="M56.7,236.361a5.824,5.824,0,0,1,4.843,2.211q2.082,2.617,2.081,8.677t-2.1,8.7a5.819,5.819,0,0,1-4.828,2.181,6.1,6.1,0,0,1-5.013-2.393q-1.91-2.392-1.9-8.527,0-6.021,2.09-8.665A5.823,5.823,0,0,1,56.7,236.361Zm0,3.387a2.029,2.029,0,0,0-1.32.475,3.141,3.141,0,0,0-.9,1.695,34.392,34.392,0,0,0-.044,10.487,3.623,3.623,0,0,0,.952,1.869,2.015,2.015,0,0,0,1.315.466,2.064,2.064,0,0,0,1.326-.471,3.16,3.16,0,0,0,.9-1.695,34.546,34.546,0,0,0,.044-10.472,3.658,3.658,0,0,0-.952-1.877A2.022,2.022,0,0,0,56.7,239.748Z" transform="translate(-49.785 -236.087)" fill="#fff"/>
            <path id="Path_8" data-name="Path 8" d="M55.36,252.029l4.073-.421a3.484,3.484,0,0,0,1.035,2.19,2.8,2.8,0,0,0,1.978.808,2.745,2.745,0,0,0,2.163-1.04,4.741,4.741,0,0,0,.89-3.133,4.293,4.293,0,0,0-.881-2.944,2.936,2.936,0,0,0-2.29-.981,4.145,4.145,0,0,0-3.154,1.556l-3.316-.48,2.093-11.091h10.8v3.823H61.045l-.64,3.616a6.237,6.237,0,0,1,2.794-.681,6.145,6.145,0,0,1,4.61,1.978,7.124,7.124,0,0,1,1.886,5.131,7.694,7.694,0,0,1-1.524,4.7,6.771,6.771,0,0,1-5.774,2.821,7.182,7.182,0,0,1-4.813-1.586A6.533,6.533,0,0,1,55.36,252.029Z" transform="translate(-38.928 -235.836)" fill="#fff"/>
            <path id="Path_9" data-name="Path 9" d="M75.248,252.029l4.073-.421a3.481,3.481,0,0,0,1.032,2.19,2.8,2.8,0,0,0,1.978.808,2.741,2.741,0,0,0,2.163-1.04,4.725,4.725,0,0,0,.89-3.133,4.293,4.293,0,0,0-.881-2.944,2.929,2.929,0,0,0-2.287-.981,4.151,4.151,0,0,0-3.157,1.556l-3.316-.48,2.093-11.091h10.8v3.823h-7.7l-.64,3.616a6.215,6.215,0,0,1,2.791-.681,6.152,6.152,0,0,1,4.613,1.978,7.137,7.137,0,0,1,1.886,5.131,7.7,7.7,0,0,1-1.527,4.7,6.769,6.769,0,0,1-5.771,2.821,7.185,7.185,0,0,1-4.816-1.586A6.529,6.529,0,0,1,75.248,252.029Z" transform="translate(-0.199 -235.836)" fill="#fff"/>
            <path id="Path_10" data-name="Path 10" d="M63.323,258.308l5.276-22.04h3.068l-5.335,22.04Z" transform="translate(-23.421 -236.268)" fill="#fff"/>
            <path id="Path_11" data-name="Path 11" d="M83.526,253.969v3.793H69.2a9.865,9.865,0,0,1,1.4-4.079,27.162,27.162,0,0,1,4.592-5.108,28.736,28.736,0,0,0,3.387-3.49,4.5,4.5,0,0,0,.843-2.5,2.833,2.833,0,0,0-.734-2.1,3.115,3.115,0,0,0-4.061.038,3.969,3.969,0,0,0-.872,2.558l-4.07-.407a6.668,6.668,0,0,1,2.281-4.843,7.669,7.669,0,0,1,4.8-1.468,6.942,6.942,0,0,1,4.957,1.7,5.577,5.577,0,0,1,1.8,4.229,7.324,7.324,0,0,1-.519,2.741,10.99,10.99,0,0,1-1.633,2.726,26.258,26.258,0,0,1-2.676,2.72c-1.288,1.185-2.107,1.966-2.449,2.355a7.249,7.249,0,0,0-.837,1.135Z" transform="translate(-11.973 -236.087)" fill="#fff"/>
          </g>
          <g id="Group_11" data-name="Group 11" transform="translate(496.86 631.087)">
            <rect id="Rectangle_37" data-name="Rectangle 37" width="96.878" height="69.42" rx="6.228" transform="translate(8.281 84.465) rotate(-60.677)" fill="#f8a400"/>
            <g id="Group_9" data-name="Group 9" transform="translate(70.713 21.947)">
              <path id="Path_13" data-name="Path 13" d="M191.734,229.376a.313.313,0,0,1-.026.327c-.147.242-.289.486-.43.731l-.065.109-.371-.215.262-.445c.077-.133.159-.262.233-.4a.306.306,0,0,1,.268-.186Z" transform="translate(-184.021 -229.299)" fill="#1c1c1c"/>
              <path id="Path_14" data-name="Path 14" d="M193.608,230.473a.313.313,0,0,1-.027.327c-.147.242-.289.486-.433.731l-.062.112-.371-.218.259-.442c.08-.136.162-.265.233-.4a.31.31,0,0,1,.271-.186Z" transform="translate(-180.371 -227.163)" fill="#1c1c1c"/>
              <path id="Path_15" data-name="Path 15" d="M189.7,229.7a.308.308,0,0,1,.327.029c.242.147.486.286.731.43l.109.065-.215.368-.445-.259c-.133-.08-.262-.159-.4-.233a.306.306,0,0,1-.186-.271Z" transform="translate(-186.391 -228.584)" fill="#1c1c1c"/>
              <path id="Path_16" data-name="Path 16" d="M188.6,231.575a.307.307,0,0,1,.327.029c.242.147.489.286.734.43l.109.065-.215.368-.445-.259c-.133-.08-.262-.162-.4-.233a.3.3,0,0,1-.183-.271Z" transform="translate(-188.527 -224.934)" fill="#1c1c1c"/>
              <path id="Path_17" data-name="Path 17" d="M192.1,229.592a.322.322,0,0,1-.027.339c-.168.271-.324.548-.489.831l-.368-.215.377-.646a2.362,2.362,0,0,0,.118-.206.289.289,0,0,1,.259-.177Z" transform="translate(-183.287 -228.872)" fill="#1c1c1c"/>
              <path id="Path_18" data-name="Path 18" d="M193.239,230.252a.321.321,0,0,1-.035.327c-.15.239-.286.483-.43.728-.021.035-.044.068-.071.106l-.363-.212.118-.2c.124-.212.253-.422.371-.637a.3.3,0,0,1,.28-.186Z" transform="translate(-181.102 -227.587)" fill="#1c1c1c"/>
              <path id="Path_19" data-name="Path 19" d="M189.482,230.069a.329.329,0,0,1,.324.035c.242.15.486.289.731.43l.106.071-.212.363-.2-.118c-.212-.124-.421-.251-.637-.368a.316.316,0,0,1-.189-.283Z" transform="translate(-186.817 -227.853)" fill="#1c1c1c"/>
              <path id="Path_20" data-name="Path 20" d="M188.822,231.2a.3.3,0,0,1,.336.027c.274.165.551.324.834.489l-.218.368-.642-.377c-.068-.041-.136-.085-.206-.121a.29.29,0,0,1-.18-.256Z" transform="translate(-188.102 -225.664)" fill="#1c1c1c"/>
              <path id="Path_21" data-name="Path 21" d="M192.473,229.805a.29.29,0,0,1-.015.324c-.171.277-.33.56-.5.846l-.368-.215.365-.622c.044-.077.094-.15.133-.227a.265.265,0,0,1,.274-.171Z" transform="translate(-182.558 -228.441)" fill="#1c1c1c"/>
              <path id="Path_22" data-name="Path 22" d="M192.842,230.024a.27.27,0,0,1,0,.312c-.174.28-.336.566-.507.858l-.365-.215.23-.392c.088-.153.18-.3.262-.454a.288.288,0,0,1,.277-.174Z" transform="translate(-181.828 -228.014)" fill="#1c1c1c"/>
              <path id="Path_23" data-name="Path 23" d="M189.249,230.464a.27.27,0,0,1,.315.006c.28.171.563.333.858.5l-.218.368-.392-.23c-.15-.088-.3-.183-.451-.265a.277.277,0,0,1-.174-.274Z" transform="translate(-187.242 -227.124)" fill="#1c1c1c"/>
              <path id="Path_24" data-name="Path 24" d="M189.033,230.832a.29.29,0,0,1,.324.018c.277.168.557.327.846.5l-.215.368-.581-.339c-.088-.053-.177-.109-.268-.156a.269.269,0,0,1-.171-.277Z" transform="translate(-187.669 -226.394)" fill="#1c1c1c"/>
              <path id="Path_25" data-name="Path 25" d="M198.921,238.019c-.592,1.014-1.188,2.028-1.777,3.042a.477.477,0,0,1-.324.248c-.3.074-.6.153-.908.236a.39.39,0,0,1-.333-.044q-3.077-1.8-6.16-3.6a.425.425,0,0,1-.2-.268c-.077-.315-.159-.631-.245-.943a.409.409,0,0,1,.047-.336q1.8-3.077,3.6-6.157a.4.4,0,0,1,.259-.2c.318-.08.637-.165.955-.25a.413.413,0,0,1,.333.047q3.073,1.8,6.148,3.6a.409.409,0,0,1,.209.277c.077.307.156.613.242.92a.442.442,0,0,1-.053.368Zm-6.207,1.309c.852.5,1.715.984,2.552,1.5a1.209,1.209,0,0,0,1.12.156.947.947,0,0,0,.56-.436c1.032-1.768,2.063-3.543,3.112-5.3a1.231,1.231,0,0,0,.156-1.117.953.953,0,0,0-.436-.563c-1.771-1.032-3.543-2.06-5.3-3.112a1.226,1.226,0,0,0-1.12-.153.934.934,0,0,0-.554.424q-1.547,2.648-3.1,5.294c-.345.587-.312.557-.162,1.161a.792.792,0,0,0,.4.525C190.869,238.243,191.792,238.788,192.714,239.327Z" transform="translate(-187.695 -228.466)" fill="#1c1c1c"/>
              <path id="Path_26" data-name="Path 26" d="M192.976,231.979l.212-.365.147.086c.248.144.5.289.743.436.159.1.18.283.038.365a.245.245,0,0,1-.206.018C193.6,232.351,193.291,232.165,192.976,231.979Z" transform="translate(-179.863 -224.791)" fill="#1c1c1c"/>
              <path id="Path_27" data-name="Path 27" d="M191.88,233.848l.209-.36.41.239c.159.091.318.183.475.277a.221.221,0,0,1,.1.315.217.217,0,0,1-.318.053c-.274-.156-.545-.318-.819-.477A.415.415,0,0,1,191.88,233.848Z" transform="translate(-181.997 -221.141)" fill="#1c1c1c"/>
              <path id="Path_28" data-name="Path 28" d="M189.453,232.65l.371.218-.071.115c-.147.253-.292.5-.442.755-.083.144-.206.186-.318.118s-.133-.189-.05-.33C189.111,233.237,189.282,232.945,189.453,232.65Z" transform="translate(-187.814 -222.773)" fill="#1c1c1c"/>
              <path id="Path_29" data-name="Path 29" d="M191.326,233.747l.357.209a.369.369,0,0,1-.03.08c-.156.268-.309.539-.474.8a.319.319,0,0,1-.192.136c-.171.029-.277-.159-.186-.327s.209-.36.312-.539Z" transform="translate(-184.164 -220.637)" fill="#1c1c1c"/>
              <path id="Path_30" data-name="Path 30" d="M192.756,232.358l.215-.368.657.383c.085.05.168.1.248.147a.207.207,0,0,1,.085.289.211.211,0,0,1-.3.074c-.206-.115-.41-.239-.613-.357Z" transform="translate(-180.292 -224.059)" fill="#1c1c1c"/>
              <path id="Path_31" data-name="Path 31" d="M192.1,233.474l.212-.36c.035.018.071.035.106.056.262.153.525.3.784.46.162.1.18.295.029.374a.233.233,0,0,1-.2.012C192.72,233.845,192.416,233.662,192.1,233.474Z" transform="translate(-181.573 -221.87)" fill="#1c1c1c"/>
              <path id="Path_32" data-name="Path 32" d="M190.2,233.083c-.183.315-.357.622-.542.923a.2.2,0,0,1-.286.065.2.2,0,0,1-.083-.259c.177-.312.362-.622.548-.94Z" transform="translate(-187.087 -222.343)" fill="#1c1c1c"/>
              <path id="Path_33" data-name="Path 33" d="M191.319,233.744c-.18.307-.354.607-.531.9a.207.207,0,0,1-.289.088.21.21,0,0,1-.08-.292c.171-.3.351-.6.534-.914Z" transform="translate(-184.897 -221.062)" fill="#1c1c1c"/>
              <path id="Path_34" data-name="Path 34" d="M192.749,232.364c.315.186.622.363.922.542a.21.21,0,0,1-.194.371c-.315-.177-.622-.363-.94-.548Z" transform="translate(-180.718 -223.33)" fill="#1c1c1c"/>
              <path id="Path_35" data-name="Path 35" d="M192.318,233.1l.209-.357a.763.763,0,0,1,.074.029l.81.474a.222.222,0,0,1,.109.312.22.22,0,0,1-.327.053C192.9,233.443,192.613,233.273,192.318,233.1Z" transform="translate(-181.145 -222.594)" fill="#1c1c1c"/>
              <path id="Path_36" data-name="Path 36" d="M190.206,233.09l.365.215-.139.236c-.124.215-.25.43-.377.646a.22.22,0,0,1-.315.1.214.214,0,0,1-.053-.315C189.856,233.682,190.027,233.391,190.206,233.09Z" transform="translate(-186.354 -221.916)" fill="#1c1c1c"/>
              <path id="Path_37" data-name="Path 37" d="M190.581,233.309l.365.215-.183.312c-.115.2-.23.395-.348.589a.211.211,0,1,1-.371-.2C190.219,233.922,190.4,233.621,190.581,233.309Z" transform="translate(-185.627 -221.49)" fill="#1c1c1c"/>
              <path id="Path_38" data-name="Path 38" d="M190.967,233.095q.8-1.375,1.606-2.75a.421.421,0,0,1,.283-.221c.519-.118.339-.159.81.118,1.771,1.032,3.537,2.072,5.308,3.1a.431.431,0,0,1,.224.295c.118.5.153.336-.112.787q-1.547,2.653-3.1,5.308a.448.448,0,0,1-.31.239c-.489.112-.33.15-.778-.112q-2.657-1.552-5.317-3.109a.446.446,0,0,1-.23-.3c-.115-.5-.153-.33.109-.778Q190.21,234.38,190.967,233.095Zm4.344,1.571.1-.106c.433-.442.869-.884,1.3-1.329a.466.466,0,0,0-.083-.755.506.506,0,0,0-.469-.006q-1.366.553-2.735,1.1l-1.179.477a.4.4,0,0,0-.268.374.406.406,0,0,0,.215.392l.227.133.813.477c-.038.044-.068.077-.1.109-.43.439-.861.881-1.291,1.32a.481.481,0,0,0-.159.416.466.466,0,0,0,.654.368c.419-.162.837-.333,1.253-.5q1.331-.539,2.664-1.076a.448.448,0,0,0,.3-.28.416.416,0,0,0-.2-.5C196.013,235.075,195.668,234.875,195.312,234.666Z" transform="translate(-187.098 -227.869)" fill="#1c1c1c"/>
              <rect id="Rectangle_38" data-name="Rectangle 38" width="5.821" height="7.045" transform="matrix(0.885, 0.466, -0.466, 0.885, 6.229, 2.63)" fill="#1c1c1c"/>
            </g>
            <path id="Path_39" data-name="Path 39" d="M183.674,256.621c-15.438,2.264-28.448,5.621-8.577,8.533s44.788,8.942,54.9,4.7l40.229-16.9c3.381-1.421,2.768-3.157-.681-3.864-5.167-1.058-11.126-2.14-12.1-2.193C257.444,246.892,187.108,253.895,183.674,256.621Z" transform="translate(-163.632 -173.091)" fill-rule="evenodd"/>
            <path id="Path_40" data-name="Path 40" d="M195.823,245.786c-2.871-.174-4.259-.256-7.077-.424-3.513-.212-6.676,4.958-7.059,11.548s2.149,12.1,5.662,12.314c2.871.171,4.259.256,7.077.424,3.513.212,6.676-4.958,7.062-11.548S199.337,246,195.823,245.786Z" transform="translate(-131.208 -176.085)" fill-rule="evenodd"/>
            <path id="Path_41" data-name="Path 41" d="M203.4,243.821c-1.574-.094-2.334-.141-3.879-.233-1.928-.118-3.661,3.507-3.87,8.094s1.176,8.4,3.1,8.515c1.574.094,2.334.141,3.879.233,1.928.118,3.661-3.507,3.873-8.094S205.323,243.936,203.4,243.821Z" transform="translate(-103.99 -179.531)" fill-rule="evenodd"/>
            <path id="Path_42" data-name="Path 42" d="M177.012,246.984c-1.574-.342-2.334-.51-3.882-.849-1.925-.421-3.658,2.927-3.87,7.48s1.179,8.586,3.1,9.007c1.574.345,2.337.513,3.882.849,1.928.424,3.661-2.924,3.87-7.478S178.936,247.409,177.012,246.984Z" transform="translate(-155.375 -174.634)" fill-rule="evenodd"/>
            <path id="Path_43" data-name="Path 43" d="M165.068,272.914a21.429,21.429,0,0,1,.271-6.823,11.054,11.054,0,0,1,2.131-4.056,16.514,16.514,0,0,1,.89-3.82,8.108,8.108,0,0,1,2.547-3.8,9.711,9.711,0,0,1,2.281-1.155c1-.4,2.007-.755,3.018-1.105,2.7-.934,5.417-1.8,8.138-2.65q5.31-1.658,10.64-3.236c9.558-7.834,16.267-10.734,28.887-10.873,9.747-.1,23.214.681,31.628,5.963a33.124,33.124,0,0,1,7.027,5.756,12.307,12.307,0,0,0,1.989,1.7c.8.578,1.627,1.114,2.473,1.615.474.286.961.578,1.462.816,1.886.9,2.32,2.862,2.6,4.728.221,1.432.354,2.874.475,4.318.156,1.863.053,3.758.268,5.644.466,4.038-1.518,5.459-4.742,5.529l-.716-11.51v-2.626l-92.68,6.8c-3.325-.755-3.711,13.755-4.294,14.336C164.726,278.186,163.85,274.626,165.068,272.914Z" transform="translate(-164.463 -195.5)" fill="#fff" fill-rule="evenodd"/>
            <path id="Path_44" data-name="Path 44" d="M194.925,246.711c9.237-7.622,15.509-10.555,28.024-10.69,9.128-.1,22.527.6,30.626,5.68a32.166,32.166,0,0,1,6.623,5.414,14.065,14.065,0,0,0,2.29,1.972c.843.61,1.721,1.176,2.611,1.707.513.307,1.076.64,1.612.9,1.182.566,1.4,2.214,1.571,3.339.212,1.385.342,2.8.46,4.194.106,1.276.2,2.552.283,3.832.047.7.074,1.441.156,2.137a4.837,4.837,0,0,1-.737,3.18l-.115.165-4.347,3.566V264.94a15.291,15.291,0,0,0-.271-3.08,5.307,5.307,0,0,0-.422-1.253,1.969,1.969,0,0,0-.192.106c-.8.5-1.465,3.381-1.645,4.285a41.85,41.85,0,0,0-.737,5.9l-.053,1.032-28.719,9.827.312-2.688c.363-3.121.584-9.11-.607-12.108a3.475,3.475,0,0,0-1.9-2.119c-2.093-.707-4.085,1.987-4.9,3.443a15.123,15.123,0,0,0-1.365,3.525,36.1,36.1,0,0,0-.979,7.489c-.047.955-.068,1.919-.133,2.871a3.7,3.7,0,0,1-.681,2.328c-1.276,1.326-6.016,1.217-7.74,1.182-2.868-.062-5.765-.31-8.63-.622-4.327-.477-8.654-1.135-12.96-1.878-3.867-.666-23.623-4.029-26.627-7.212-1.194-1.261-.663-2.706.3-3.693a22.2,22.2,0,0,1,.139-6.923,9.113,9.113,0,0,1,2.16-3.79v-.021a13.779,13.779,0,0,1,.813-3.923,6.4,6.4,0,0,1,1.928-2.956,8.444,8.444,0,0,1,1.851-.911c.964-.386,1.951-.737,2.936-1.076,2.676-.926,5.382-1.786,8.088-2.632Q189.424,248.336,194.925,246.711Z" transform="translate(-163.521 -194.279)" fill-rule="evenodd"/>
            <path id="Path_45" data-name="Path 45" d="M194.688,247.107c-5.22,1.544-22.088,6.605-23.661,7.8s-2.146,4.946-2.146,5.662v.713a7.084,7.084,0,0,0-2.214,3.513c-.625,2.287,0,7.147,0,7.147s-1.609,1.085-.858,1.877,5.288,3.18,25.66,6.693,27.234,2.5,27.95,1.754-.357-10.03,2.93-15.907,8.008-5.308,9.723-.987.713,12.906.713,12.906l25.232-8.63a29.033,29.033,0,0,1,.224-7.982c.351-1.692,1.317-3.646,2.137-4.165a3.242,3.242,0,0,1,4.436,1.5c1.182,2.865.881,4.822.9,7.619l.312-.315a3.238,3.238,0,0,0,.463-2.1c-.141-1.241-.625-11.725-1.483-12.134s-5.146-2.812-7.077-5a32.152,32.152,0,0,0-9.88-7.053c-6.145-2.8-19.694-3.516-26.069-3.445C209.923,236.7,203.987,239.394,194.688,247.107Z" transform="translate(-162.441 -193.201)" fill="#f8a400" fill-rule="evenodd"/>
            <path id="Path_46" data-name="Path 46" d="M168.774,244.155a6.749,6.749,0,0,0-.389,2.706,1.291,1.291,0,0,0,1.017,1.256c5.288,1.418,15.123,2.682,21.277,3.224,1.094.1,2.157.312,2.67-.784.533-1.138.557-2.016-.083-2.644-.46-.448-8.126-1.373-14.46-2.258-5.6-.781-9.977-1.562-10.033-1.5Zm-.56,4.33a51.342,51.342,0,0,0,11.486,2.579c2.744.262,8.2,1.226,11.772.981,1.217-.083,1.211-.171.342.9-2.107,2.582-4.356,2.715-9.317,2.208a48.246,48.246,0,0,1-11.937-2.467C169.184,252.184,168.432,250.221,168.214,248.485Z" transform="translate(-157.371 -178.428)" fill="#f8a400" fill-rule="evenodd"/>
            <path id="Path_47" data-name="Path 47" d="M166.464,254.852a32.422,32.422,0,0,0,.2,5.957s-1.609,1.085-.858,1.877,5.288,3.18,25.66,6.693,27.234,2.5,27.95,1.754-.357-10.03,2.93-15.907,8.008-5.308,9.723-.987.713,12.906.713,12.906l25.232-8.63s-.271-9.856,2.361-11.395c2.585-1.515,3.8.5,4.436,2.85a22.552,22.552,0,0,1,.407,6.113l.8-.911a3.238,3.238,0,0,0,.463-2.1c-.112-.987-.442-7.84-1.005-10.793a10.855,10.855,0,0,1-.439,1.521c-.572,1.465-8.721,2.045-8.721,2.045l-24.018,5.562a5.291,5.291,0,0,0-4.789-2.361c-3.145.31-5.361,5.037-7.218,8.571-1.465,2.785-5.456,4.395-7.993,4.76,2.62,1.9,4.881,7.454,3.56,7.79-1.359.348-9.293-.345-9.936-1.1s-1.5-5.88-1.931-6.051-6.72-.9-6.72-.9a44.8,44.8,0,0,1,4.76-.781,31.356,31.356,0,0,0-6.546.581c-.858.448-4.43-.265-4.43-.265s-18.085-2.591-19.014-3.289A44.461,44.461,0,0,0,166.464,254.852Z" transform="translate(-162.441 -182.071)" fill="#f8a400" fill-rule="evenodd"/>
            <path id="Path_48" data-name="Path 48" d="M166.1,246.3a33.216,33.216,0,0,0-.18,6.357c.091.4.958.8,1.533.931.6.136,1.2.3,1.379-.147a14.46,14.46,0,0,0,.752-3.266C169.725,248.759,169.625,248.394,166.1,246.3Z" transform="translate(-161.982 -174.242)" fill-rule="evenodd"/>
            <path id="Path_49" data-name="Path 49" d="M168.922,242.8c-1.571,1.194-2.146,4.946-2.146,5.662v.713l-.086.074a19.877,19.877,0,0,0,2.744,1.639.385.385,0,0,0,.519-.256,37.89,37.89,0,0,0,.024-3.9C169.977,246.461,169.37,242.462,168.922,242.8Z" transform="translate(-160.336 -181.099)" fill-rule="evenodd"/>
            <path id="Path_50" data-name="Path 50" d="M191,237.053c-5.37,1.515-9.812,4.356-15.518,9.087l38.2,3.407s4.462-10.8,4.147-11.259S199.165,237.295,191,237.053Z" transform="translate(-143.215 -192.252)" fill-rule="evenodd"/>
            <path id="Path_51" data-name="Path 51" d="M180.037,239.454c-1.68-1.067-4.112-.819-4.934,2.028S177.746,242.033,180.037,239.454Z" transform="translate(-144.196 -188.71)" fill-rule="evenodd"/>
            <path id="Path_52" data-name="Path 52" d="M182.375,246.508c-3.145,2.1-7.006,6.443-3.646,6.216s13.01-.575,14.8-2.4,4.288-5.744,2.644-6.06S185.806,245.429,182.375,246.508Z" transform="translate(-139.423 -178.29)" fill-rule="evenodd"/>
            <path id="Path_53" data-name="Path 53" d="M168.536,243.934a6.57,6.57,0,0,0-.407,2.706,1.3,1.3,0,0,0,1.061,1.256c5.509,1.418,15.754,2.679,22.164,3.224,1.141.1,2.246.312,2.782-.787.554-1.135.578-2.016-.088-2.641-.477-.448-8.462-1.376-15.061-2.261-5.83-.781-10.392-1.559-10.451-1.5Zm-.3,4.492a56.405,56.405,0,0,0,11.68,2.417c2.859.262,8.541,1.223,12.264.979,1.267-.083,1.264-.168.357.9-2.193,2.582-4.536,2.715-9.7,2.2a49.98,49.98,0,0,1-12.3-2.573C169.1,251.854,168.462,250.162,168.235,248.426Z" transform="translate(-157.536 -178.858)" fill-rule="evenodd"/>
            <path id="Path_54" data-name="Path 54" d="M175.87,249.688c5.075-1.123,12.081-1.63,14.8.106s5.149,7.6,3.79,7.946-9.293-.345-9.936-1.1-1.5-5.88-1.931-6.051S175.87,249.688,175.87,249.688Z" transform="translate(-142.461 -169.642)" fill-rule="evenodd"/>
            <path id="Path_55" data-name="Path 55" d="M186.459,249.963c-2.146-.094-3.015-.242-4.869-.3-2.1-.068-5.008-.021-4.135.333a23.927,23.927,0,0,0,3.876.678C183.978,250.95,186.365,250.821,186.459,249.963Z" transform="translate(-139.684 -167.754)" fill-rule="evenodd"/>
            <path id="Path_56" data-name="Path 56" d="M187,250.84c-4.574-.2-10.649-.643-9.007.029S186.857,252.116,187,250.84Z" transform="translate(-138.865 -166.046)" fill-rule="evenodd"/>
            <path id="Path_57" data-name="Path 57" d="M167.333,251.133c1.715-2.043,1.86-3.319,4.288-3.03s18.159,3.021,18.159,3.021a7.808,7.808,0,0,1,3.643,2.794l1.715,2.249S185.061,256.273,167.333,251.133Z" transform="translate(-159.086 -170.813)" fill-rule="evenodd"/>
            <path id="Path_58" data-name="Path 58" d="M189.389,252.873l18.657-6.384-2.361,3.5-16.44,5.659Z" transform="translate(-116.415 -173.876)" fill-rule="evenodd"/>
            <path id="Path_59" data-name="Path 59" d="M227.507,243.938c-6.039-1.919-27.393,2.019-41.705,5.1l-.654.085c6.652-2.8,33.721-6.926,40.081-7.628.808.48,1.453.825,1.733.958.127.062.248.348.36.79Z" transform="translate(-124.396 -183.59)" fill-rule="evenodd"/>
            <path id="Path_60" data-name="Path 60" d="M192.148,240.044c-1.315,3.443-2.744,9.042-2.379,9.066.427.024,18.8-2.8,19.084-3.213.613-.884-3.569-3.908-5.883-5.226a26.046,26.046,0,0,0-9.137-3.062C192.929,237.456,192.667,238.691,192.148,240.044Z" transform="translate(-115.507 -191.193)" fill-rule="evenodd"/>
            <path id="Path_61" data-name="Path 61" d="M192.292,240.006c-.928.088-1.931,1.029-1.931,3.6,0,.454.006.831.018,1.144.118,3.325,3.042,2.856,2.832-.256,0,0,4.583-.15,5.19-.722.309-.286.592-.663-.436-1.771A7.093,7.093,0,0,0,192.292,240.006Z" transform="translate(-114.242 -186.581)" fill-rule="evenodd"/>
            <path id="Path_62" data-name="Path 62" d="M189.386,252.736l22.1-6.759-4.677,3.06-17.573,7.445Z" transform="translate(-116.427 -174.872)" fill-rule="evenodd"/>
            <path id="Path_63" data-name="Path 63" d="M171.259,244.469l-.466.395c-1.241,1.453-4.209,4.053-.937,4.521,4.686.672,13.207,1.922,19.709,2.791,3.667.492,6.06,1.082,8.32.84,1.948-.206,7.737-1.9,13.885-3.855,7.08-2.252,14.6-4.84,17.257-5.9,2.075-.828.522-1.409-1.754-1.813l1.541-.357c.012.006,3.469.976,1.707,2.373-.607.483-9.885,3.74-18.468,6.472-6.187,1.969-12.031,3.672-14.035,3.888-2.591.274-4.577-.1-8.813-.707-6.192-.893-15-2.293-19.417-2.927-3.982-.575-1.807-3.257-.292-5.081C170.018,244.911,170.61,244.7,171.259,244.469Z" transform="translate(-158.714 -184.388)" fill-rule="evenodd"/>
            <path id="Path_64" data-name="Path 64" d="M190.385,246.973c-1.173-.071-2.311.861-3.2,2.423a15.108,15.108,0,0,0-1.721,6.546c-.015.321-.024.651-.024.99a14.3,14.3,0,0,0,1.158,5.954c.687,1.453,1.621,2.39,2.676,2.508l.109.009c1.173.071,2.311-.861,3.2-2.423a15.151,15.151,0,0,0,1.721-6.546c.015-.321.024-.651.024-.99a14.293,14.293,0,0,0-1.158-5.954c-.687-1.453-1.624-2.39-2.676-2.508l-.109-.009Zm-3.914,1.992c1.038-1.816,2.423-2.891,3.914-2.8.038,0,.085.006.15.015,1.373.153,2.547,1.276,3.363,3.006a15.093,15.093,0,0,1,1.241,6.307c0,.327-.009.672-.029,1.032a15.891,15.891,0,0,1-1.816,6.888c-1.037,1.816-2.423,2.891-3.914,2.8l-.15-.015c-1.373-.153-2.547-1.276-3.363-3.006a15.093,15.093,0,0,1-1.241-6.307c0-.327.009-.672.029-1.032A15.891,15.891,0,0,1,186.471,248.965Z" transform="translate(-125.41 -174.522)" fill="#fff" fill-rule="evenodd"/>
            <path id="Path_65" data-name="Path 65" d="M187.992,249.255c-.3-.018-.607.215-.861.607a3.9,3.9,0,0,0-.539,1.836c0,.083-.006.177-.006.28a3.621,3.621,0,0,0,.354,1.651.994.994,0,0,0,.678.61l.032,0a1.064,1.064,0,0,0,.861-.607,3.86,3.86,0,0,0,.539-1.833c.006-.086.006-.18.006-.283a3.592,3.592,0,0,0-.354-1.651,1,1,0,0,0-.678-.61l-.032,0Zm-1.547.142a1.772,1.772,0,0,1,1.547-.952l.077.009a1.819,1.819,0,0,1,1.347,1.076,4.46,4.46,0,0,1,.451,2.037q0,.146-.009.327a4.679,4.679,0,0,1-.66,2.208,1.769,1.769,0,0,1-1.547.952l-.077-.009a1.826,1.826,0,0,1-1.347-1.073,4.472,4.472,0,0,1-.451-2.04q0-.146.009-.327A4.679,4.679,0,0,1,186.445,249.4Z" transform="translate(-123.171 -170.073)" fill="#fff" fill-rule="evenodd"/>
            <path id="Path_66" data-name="Path 66" d="M186.911,248.889c-.51-.029-.964.787-1.017,1.824s.315,1.9.825,1.933.964-.784,1.017-1.821S187.421,248.922,186.911,248.889Z" transform="translate(-122.95 -169.203)" fill="#fff" fill-rule="evenodd"/>
            <path id="Path_67" data-name="Path 67" d="M187.18,249.564c-.094-.006-.209.115-.324.318a2.72,2.72,0,0,0-.289,1.144c0,.047-.006.106-.006.177a2.51,2.51,0,0,0,.192,1.023c.08.171.162.28.233.286h0c.091.006.209-.118.321-.318a2.679,2.679,0,0,0,.292-1.147c0-.044,0-.1,0-.177a2.523,2.523,0,0,0-.189-1.023c-.08-.171-.162-.277-.233-.286h0v0Zm-1.034-.109a1.147,1.147,0,0,1,1.034-.7l.044,0a1.223,1.223,0,0,1,.922.79,3.363,3.363,0,0,1,.268,1.373c0,.059,0,.13-.006.218a3.441,3.441,0,0,1-.386,1.48,1.153,1.153,0,0,1-1.035.7l-.044-.006a1.209,1.209,0,0,1-.923-.787,3.362,3.362,0,0,1-.271-1.374c0-.059,0-.13.009-.218a3.466,3.466,0,0,1,.386-1.483Zm.843,3.056Zm.192-2.95" transform="translate(-123.219 -169.471)" fill="#fff" fill-rule="evenodd"/>
            <path id="Path_68" data-name="Path 68" d="M200.415,244.688c-.643-.038-1.267.619-1.757,1.712a12.9,12.9,0,0,0-.943,4.568c-.009.224-.012.454-.012.69a12.172,12.172,0,0,0,.634,4.129c.377,1.005.89,1.648,1.468,1.721l.059.006c.643.038,1.267-.619,1.757-1.715a12.889,12.889,0,0,0,.943-4.568c.009-.221.015-.451.015-.69a12.192,12.192,0,0,0-.637-4.129c-.374-1.005-.89-1.648-1.468-1.721l-.059,0Zm-2.146,1.418c.569-1.27,1.329-2.031,2.146-1.984l.083.009c.755.1,1.4.867,1.845,2.063a12.923,12.923,0,0,1,.681,4.377q0,.34-.018.716a13.494,13.494,0,0,1-1,4.807c-.569,1.27-1.326,2.034-2.146,1.984l-.083-.009c-.752-.094-1.4-.864-1.842-2.06a12.862,12.862,0,0,1-.681-4.377c0-.227.006-.466.015-.719A13.625,13.625,0,0,1,198.269,246.106Z" transform="translate(-100.811 -178.489)" fill="#fff" fill-rule="evenodd"/>
            <path id="Path_69" data-name="Path 69" d="M199.105,246.275c-.165-.012-.336.153-.472.43a3.233,3.233,0,0,0-.3,1.279c0,.059,0,.127,0,.2a3.021,3.021,0,0,0,.195,1.144c.1.245.233.4.371.419l.018,0c.165.009.333-.156.472-.43a3.248,3.248,0,0,0,.3-1.282c0-.059,0-.124,0-.2a3.08,3.08,0,0,0-.195-1.144c-.1-.242-.233-.4-.374-.419Zm-.849.112c.218-.436.519-.7.849-.675l.041,0c.307.041.563.315.74.737a3.812,3.812,0,0,1,.248,1.415c0,.065,0,.141-.006.227a3.955,3.955,0,0,1-.362,1.542c-.218.433-.519.7-.849.675l-.041-.006c-.307-.041-.563-.315-.74-.734a3.824,3.824,0,0,1-.248-1.415c0-.068,0-.144.006-.227A3.955,3.955,0,0,1,198.256,246.387Z" transform="translate(-99.584 -175.392)" fill="#fff" fill-rule="evenodd"/>
            <path id="Path_70" data-name="Path 70" d="M198.513,246.023c-.28-.015-.531.557-.56,1.279s.174,1.32.454,1.338.528-.554.557-1.279S198.79,246.041,198.513,246.023Z" transform="translate(-99.463 -174.784)" fill="#fff" fill-rule="evenodd"/>
            <path id="Path_71" data-name="Path 71" d="M198.659,246.491c-.053,0-.118.083-.18.224a2.373,2.373,0,0,0-.159.8v.124a2.155,2.155,0,0,0,.1.71c.044.118.088.192.127.2h0v0c.05,0,.115-.083.177-.224a2.3,2.3,0,0,0,.159-.8l0-.124a2.162,2.162,0,0,0-.106-.71c-.041-.118-.088-.189-.127-.195Zm-.569-.065c.138-.321.339-.513.569-.5l.024,0c.215.027.392.227.5.539a2.809,2.809,0,0,1,.147.952l0,.153a2.927,2.927,0,0,1-.209,1.032c-.141.321-.342.513-.569.5l-.024,0c-.218-.027-.392-.23-.507-.542a2.871,2.871,0,0,1-.147-.952l0-.15a3.022,3.022,0,0,1,.212-1.035Zm.463,2.119Zm.106-2.054" transform="translate(-99.61 -174.969)" fill="#fff" fill-rule="evenodd"/>
            <path id="Path_72" data-name="Path 72" d="M165.91,246.213a25.837,25.837,0,0,1,6.458,4.8,40.067,40.067,0,0,1-6.543-1.707Z" transform="translate(-162.023 -174.414)" fill-rule="evenodd"/>
            <path id="Path_73" data-name="Path 73" d="M166.01,247.572c.987.336,1.4.4,2.249.7.964.348,2.29.928,1.866,1.014a7.29,7.29,0,0,1-1.822-.253C167.071,248.733,165.99,248.191,166.01,247.572Z" transform="translate(-161.663 -171.767)" fill-rule="evenodd"/>
            <path id="Path_74" data-name="Path 74" d="M165.9,248.029c2.107.719,4.919,1.556,4.117,1.718S165.874,248.954,165.9,248.029Z" transform="translate(-161.871 -170.877)" fill-rule="evenodd"/>
            <path id="Path_75" data-name="Path 75" d="M194.895,245.57c-3.693.318-10.6.13-13.5,2.34a41.139,41.139,0,0,0-3.652,3.463,17.217,17.217,0,0,1,3.3-3.882c2.965-2.514,9.847-2.526,13.711-2.965Z" transform="translate(-138.818 -177.697)" fill="#fff" fill-rule="evenodd"/>
            <path id="Path_76" data-name="Path 76" d="M187.548,244.537c2-.159-1.58,4.162-2.252,4.719a8.111,8.111,0,0,1-2.788.787l-1.214.215.212-1.108c.015-.071.2-.1.448-.144,2.143-.36,2.317-2.759,1.014-3.068,0,0-1.2-.15-1.229-.153l.127-.5Z" transform="translate(-131.899 -177.686)" fill="#fff" fill-rule="evenodd"/>
            <path id="Path_77" data-name="Path 77" d="M167.113,243.677a3.778,3.778,0,0,1,.893,1.907c.189.955.36,2.043.587,3.655,0-1.235.024-1.5-.056-2.706a6.307,6.307,0,0,0-.99-3.552A4.784,4.784,0,0,0,167.113,243.677Z" transform="translate(-159.515 -180.708)" fill="#fff" fill-rule="evenodd"/>
            <path id="Path_78" data-name="Path 78" d="M166.72,247.679l.015.012a8,8,0,0,0,1.264.887,3.825,3.825,0,0,1-.006-.923c.006-.071-.1-.162-.236-.283-1.141-1-.124-4.191.981-2.517a5.98,5.98,0,0,0,.427.566L169,244.074l-1.093-.875a12.323,12.323,0,0,0-1.188,4.448Z" transform="translate(-160.28 -180.283)" fill="#fff" fill-rule="evenodd"/>
            <path id="Path_79" data-name="Path 79" d="M190.707,240.4a8.985,8.985,0,0,1,3.891.94,3.285,3.285,0,0,1,1.96,1.851,3.153,3.153,0,0,1,.174.92,2.327,2.327,0,0,0,1-.342.668.668,0,0,0,.233-.8,3.031,3.031,0,0,0-.669-.967,7.093,7.093,0,0,0-5.674-2A1.628,1.628,0,0,0,190.707,240.4Z" transform="translate(-113.568 -186.581)" fill="#fff" fill-rule="evenodd"/>
            <path id="Path_80" data-name="Path 80" d="M187.718,244.867c-3.808-.928-1.7-3.6,6.287-7.557-.354-.012-4.875-.1-5.273.05a40.468,40.468,0,0,0-10.914,6.464,14.148,14.148,0,0,1-1.76,1.409c-.192.156-.383.312-.575.474l29.751,2.653C199.887,247.585,191.528,245.8,187.718,244.867Z" transform="translate(-143.215 -191.819)" fill="#fff" fill-rule="evenodd"/>
            <path id="Path_81" data-name="Path 81" d="M175.284,239.871c12.117.687,25.922,1.848,37.915,3.7a17.367,17.367,0,0,1,2.874.586l-.533-.041c-13.561-1.217-26.653-2.529-40.308-3.109a.568.568,0,1,1,.053-1.135Z" transform="translate(-144.764 -186.764)" fill-rule="evenodd"/>
            <path id="Path_82" data-name="Path 82" d="M226.069,242.694c-2.432.928-26.556,8.9-30.131,8.9-1.933,0-19.155-2.169-26.509-3.354-1.105-.177-1.441-.769-1.406-1.079-.43.849-.3,1.571,1.273,1.8,2.567.368,6.281.908,10.183,1.465.94.136,1.892.268,2.838.4,2.308.324,4.6.643,6.688.923,3.667.492,6.06,1.082,8.32.84,1.948-.206,7.737-1.9,13.885-3.855,7.08-2.252,14.6-4.84,17.257-5.9,1.627-.651,1.02-1.149-.416-1.527C228.147,241.648,227.558,242.125,226.069,242.694Z" transform="translate(-158.156 -183.964)" fill="#fff" fill-rule="evenodd"/>
            <path id="Path_83" data-name="Path 83" d="M166.221,249.09c-.981,2,.5,3.289,2.579,4.144,4.126,1.709,10.487,2.883,17.033,4.076,7.772,1.418,15.854,2.771,21.416,3.82l-1.273-.094c-10.448-1.1-24.764-3.183-35.053-5.836-4.023-1.037-7.743-2.9-5.9-6.814Z" transform="translate(-164.535 -170.182)" fill="#fff" fill-rule="evenodd"/>
            <path id="Path_84" data-name="Path 84" d="M188.778,256.359l23.962-7.724L188.264,258Z" transform="translate(-118.326 -169.697)" fill="#fff" fill-rule="evenodd"/>
            <path id="Path_85" data-name="Path 85" d="M188.036,248.654c5.373-1.547,24.354-5.588,28.958-5.391-10.274,2.373-19.391,4.7-27.752,7.489Z" transform="translate(-118.77 -180.171)" fill="#fff" fill-rule="evenodd"/>
            <g id="Group_10" data-name="Group 10" transform="translate(74.532 26.111)">
              <path id="Path_86" data-name="Path 86" d="M190.37,231.957l.15-.18a3.205,3.205,0,0,1,1.515-1.037c.174-.056.206-.035.251.139l.035.141a.12.12,0,0,1-.094.165,2.774,2.774,0,0,0-1.668,1.424,3.123,3.123,0,0,0-.254.772l-.463-.124a3.033,3.033,0,0,1,.212-.716,1.219,1.219,0,0,0,.05-.133Z" transform="translate(-189.785 -230.712)" fill="#fff"/>
              <path id="Path_87" data-name="Path 87" d="M193.712,231.825a2.8,2.8,0,0,1-.171.9,3.223,3.223,0,0,1-2.007,2.019,1.067,1.067,0,0,1-.127.041.124.124,0,0,1-.174-.091c-.018-.062-.032-.124-.047-.186-.029-.118-.006-.162.112-.2a2.688,2.688,0,0,0,.728-.354,2.782,2.782,0,0,0,1.179-1.9l.015-.059c.053-.015.109-.024.159-.041C193.49,231.913,193.6,231.866,193.712,231.825Z" transform="translate(-187.19 -228.543)" fill="#fff"/>
              <path id="Path_88" data-name="Path 88" d="M190.165,232.8a4.635,4.635,0,0,1,.15-.5,2.215,2.215,0,0,1,.825-.99,2.193,2.193,0,0,1,.56-.274c.1-.032.156,0,.183.1l.044.165c.029.121.009.162-.115.2a1.8,1.8,0,0,0-1.158,1.294h-.088Z" transform="translate(-189.156 -230.094)" fill="#fff"/>
              <path id="Path_89" data-name="Path 89" d="M192.852,231.948a2.267,2.267,0,0,1-1.521,1.662c-.1.035-.156,0-.183-.1l-.047-.186c-.026-.1,0-.144.1-.18a1.785,1.785,0,0,0,.687-.421,1.75,1.75,0,0,0,.413-.628l.032-.068a.388.388,0,0,0,.059,0c.124-.024.248-.05.371-.074A.476.476,0,0,1,192.852,231.948Z" transform="translate(-187.351 -228.304)" fill="#fff"/>
              <path id="Path_90" data-name="Path 90" d="M189.88,231.575l.463.124c-.009.195-.026.392-.026.589a3.235,3.235,0,0,0,.05.41c.018.121-.006.162-.124.195-.062.015-.124.032-.186.047a.125.125,0,0,1-.162-.1,3.237,3.237,0,0,1-.024-1.238Z" transform="translate(-189.823 -229.03)" fill="#fff"/>
              <path id="Path_91" data-name="Path 91" d="M192.034,232.649a.476.476,0,0,0-.091,0c-.124.024-.248.05-.371.074a.388.388,0,0,1-.059,0,1.838,1.838,0,0,0,.094-.643c-.006-.1-.018-.192-.03-.286a.12.12,0,0,1,.1-.15l.209-.053a.118.118,0,0,1,.162.1,2.259,2.259,0,0,1,0,.878Z" transform="translate(-186.532 -229.005)" fill="#fff"/>
              <path id="Path_92" data-name="Path 92" d="M192.393,232.446c-.112.041-.221.088-.333.13-.05.018-.106.027-.159.041,0-.2,0-.4,0-.6a2.352,2.352,0,0,0-.041-.289.122.122,0,0,1,.1-.165c.068-.018.136-.038.2-.053a.12.12,0,0,1,.162.1A3.2,3.2,0,0,1,192.393,232.446Z" transform="translate(-185.872 -229.165)" fill="#fff"/>
              <path id="Path_93" data-name="Path 93" d="M191.124,232.6a.833.833,0,0,0,.236-.392,1.7,1.7,0,0,0,.032-.321c0-.1.021-.133.115-.159l.2-.053a.12.12,0,0,1,.156.106,1.268,1.268,0,0,1-.165.852c-.086,0-.171,0-.256-.006C191.339,232.62,191.23,232.608,191.124,232.6Z" transform="translate(-187.288 -228.846)" fill="#fff"/>
              <path id="Path_94" data-name="Path 94" d="M190.193,231.631l.4,0h.088a2.014,2.014,0,0,0-.015.752.113.113,0,0,1-.091.144c-.077.024-.15.041-.227.059a.117.117,0,0,1-.153-.094,2.384,2.384,0,0,1-.015-.843Z" transform="translate(-189.183 -228.921)" fill="#fff"/>
              <path id="Path_95" data-name="Path 95" d="M191.258,231.554a.888.888,0,0,0-.292.6,1.3,1.3,0,0,0,.006.15.117.117,0,0,1-.091.136c-.08.021-.156.041-.236.059a.112.112,0,0,1-.147-.091,1.268,1.268,0,0,1,.071-.687l.018-.027a.307.307,0,0,0,.074,0c.174-.038.345-.083.519-.121Z" transform="translate(-188.545 -229.071)" fill="#fff"/>
              <path id="Path_96" data-name="Path 96" d="M191.187,231.957l-.08.018c-.174.038-.345.083-.519.121a.307.307,0,0,1-.074,0,2.779,2.779,0,0,1,.218-.36,1.188,1.188,0,0,1,.516-.371c.106-.041.165-.012.195.1.018.065.035.13.05.2a.12.12,0,0,1-.071.156C191.343,231.863,191.264,231.91,191.187,231.957Z" transform="translate(-188.474 -229.474)" fill="#fff"/>
              <path id="Path_97" data-name="Path 97" d="M191.347,231.985c.106.009.215.021.321.026.085.006.171,0,.256.006a1.253,1.253,0,0,1-.507.507c-.053.027-.109.053-.162.074a.123.123,0,0,1-.186-.091c-.021-.071-.038-.141-.056-.215a.122.122,0,0,1,.062-.144C191.167,232.094,191.259,232.038,191.347,231.985Z" transform="translate(-187.511 -228.232)" fill="#fff"/>
              <path id="Path_98" data-name="Path 98" d="M190.808,231.99a.361.361,0,0,1,.657-.183l-.018.035a.362.362,0,0,1-.6.162Z" transform="translate(-187.903 -228.885)" fill="#fff"/>
              <path id="Path_99" data-name="Path 99" d="M190.809,231.886l.041.015a.362.362,0,0,0,.6-.162l.018-.035a.366.366,0,0,1,.012.4.377.377,0,0,1-.4.156A.359.359,0,0,1,190.809,231.886Z" transform="translate(-187.904 -228.781)" fill="#fff"/>
            </g>
          </g>
          <text id="VALID_THRU" data-name="VALID THRU" transform="translate(142.86 637.049)" fill="#fff" font-size="20" font-family="Poppins-SemiBold, Poppins" font-weight="600"><tspan x="0" y="0">VALID THRU</tspan></text>
        </g>
      </g>
    </g>
  </g>
</svg>
