<svg xmlns="http://www.w3.org/2000/svg" xmlns:xlink="http://www.w3.org/1999/xlink" width="659.68" height="353.088" viewBox="0 0 659.68 353.088">
  <defs>
    <filter id="Path_16" x="0" y="0" width="659.68" height="353.088" filterUnits="userSpaceOnUse">
      <feOffset dx="3" dy="3" input="SourceAlpha"/>
      <feGaussianBlur stdDeviation="2.5" result="blur"/>
      <feFlood flood-color="#3f4041" flood-opacity="0.788"/>
      <feComposite operator="in" in2="blur"/>
    </filter>
    <filter id="Path_16-2" x="0" y="0" width="659.68" height="353.088" filterUnits="userSpaceOnUse">
      <feOffset dy="3" input="SourceAlpha"/>
      <feGaussianBlur stdDeviation="3" result="blur-2"/>
      <feFlood flood-color="#686464" flood-opacity="0.8" result="color"/>
      <feComposite operator="out" in="SourceGraphic" in2="blur-2"/>
      <feComposite operator="in" in="color"/>
      <feComposite operator="in" in2="SourceGraphic"/>
    </filter>
  </defs>
  <g id="Group_2705" data-name="Group 2705" transform="translate(-301.357 -195.823)">
    <g data-type="innerShadowGroup">
      <g transform="matrix(1, 0, 0, 1, 301.36, 195.82)" filter="url(#Path_16)">
        <path id="Path_16-3" data-name="Path 16" d="M948.8,287.1l.237.2V216.384c0-12.555-12.394-22.738-27.681-22.738H335.043c-15.287,0-27.686,10.183-27.686,22.738V287.1l11.237,9.229c14.941,12.271,14.941,32.165,0,44.436l-11.237,9.225v70.72c0,12.555,12.4,22.738,27.686,22.738H329.46c-12.209,0-22.1,8.126-22.1,18.149v48.987c0,10.023,9.894,18.149,22.1,18.149H926.938c12.2,0,22.1-8.126,22.1-18.149V461.6c0-10.023-9.894-18.149-22.1-18.149h-5.587c15.292,0,27.686-10.183,27.686-22.738V349.8l-.237.195-11.232-9.225c-14.941-12.271-14.941-32.166,0-44.436Z" transform="translate(-301.36 -187.65)" fill="#fff" stroke="#707070" stroke-width="3"/>
      </g>
      <path id="Path_16-4" data-name="Path 16" d="M948.8,287.1l.237.2V216.384c0-12.555-12.394-22.738-27.681-22.738H335.043c-15.287,0-27.686,10.183-27.686,22.738V287.1l11.237,9.229c14.941,12.271,14.941,32.165,0,44.436l-11.237,9.225v70.72c0,12.555,12.4,22.738,27.686,22.738H329.46c-12.209,0-22.1,8.126-22.1,18.149v48.987c0,10.023,9.894,18.149,22.1,18.149H926.938c12.2,0,22.1-8.126,22.1-18.149V461.6c0-10.023-9.894-18.149-22.1-18.149h-5.587c15.292,0,27.686-10.183,27.686-22.738V349.8l-.237.195-11.232-9.225c-14.941-12.271-14.941-32.166,0-44.436Z" transform="translate(0 8.177)" fill="#fff"/>
      <g transform="matrix(1, 0, 0, 1, 301.36, 195.82)" filter="url(#Path_16-2)">
        <path id="Path_16-5" data-name="Path 16" d="M948.8,287.1l.237.2V216.384c0-12.555-12.394-22.738-27.681-22.738H335.043c-15.287,0-27.686,10.183-27.686,22.738V287.1l11.237,9.229c14.941,12.271,14.941,32.165,0,44.436l-11.237,9.225v70.72c0,12.555,12.4,22.738,27.686,22.738H329.46c-12.209,0-22.1,8.126-22.1,18.149v48.987c0,10.023,9.894,18.149,22.1,18.149H926.938c12.2,0,22.1-8.126,22.1-18.149V461.6c0-10.023-9.894-18.149-22.1-18.149h-5.587c15.292,0,27.686-10.183,27.686-22.738V349.8l-.237.195-11.232-9.225c-14.941-12.271-14.941-32.166,0-44.436Z" transform="translate(-301.36 -187.65)" fill="#fff"/>
      </g>
      <path id="Path_16-6" data-name="Path 16" d="M948.8,287.1l.237.2V216.384c0-12.555-12.394-22.738-27.681-22.738H335.043c-15.287,0-27.686,10.183-27.686,22.738V287.1l11.237,9.229c14.941,12.271,14.941,32.165,0,44.436l-11.237,9.225v70.72c0,12.555,12.4,22.738,27.686,22.738H329.46c-12.209,0-22.1,8.126-22.1,18.149v48.987c0,10.023,9.894,18.149,22.1,18.149H926.938c12.2,0,22.1-8.126,22.1-18.149V461.6c0-10.023-9.894-18.149-22.1-18.149h-5.587c15.292,0,27.686-10.183,27.686-22.738V349.8l-.237.195-11.232-9.225c-14.941-12.271-14.941-32.166,0-44.436Z" transform="translate(0 8.177)" fill="none" stroke="#707070" stroke-width="3"/>
    </g>
    <text id="In_Time" data-name="In Time" transform="translate(394.344 401.776)" fill="#a5acc6" font-size="18" font-family="SegoeUI, Segoe UI" letter-spacing="0.02em"><tspan x="0" y="0">In Time</tspan></text>
    <text id="InPark_Ltd" data-name="InPark Ltd" transform="translate(432.344 471.041)" fill="#717174" font-size="18" font-family="SegoeUI, Segoe UI" letter-spacing="0.02em"><tspan x="0" y="0">InPark Ltd</tspan></text>
    <text id="Out_Time" data-name="Out Time" transform="translate(840.746 401.776)" fill="#a5acc6" font-size="18" font-family="SegoeUI, Segoe UI" letter-spacing="0.02em"><tspan x="-76.014" y="0">Out Time</tspan></text>
    <g id="Group_19" data-name="Group 19" transform="translate(391.502 445.619)">
      <path id="Path_20" data-name="Path 20" d="M344.416,292.689H333.751l-1.564,4.105h-9.774l11.781-30.661h9.774l11.786,30.661h-9.775Zm-2.454-6.384-2.855-7.449-2.9,7.449Z" transform="translate(-322.413 -266.134)" fill="#e4a300"/>
    </g>
  </g>
</svg>
